<?xml version="1.0" standalone="no"?>
<!DOCTYPE svg PUBLIC "-//W3C//DTD SVG 20010904//EN"
 "http://www.w3.org/TR/2001/REC-SVG-20010904/DTD/svg10.dtd">
<svg version="1.0" xmlns="http://www.w3.org/2000/svg"
 width="226.000000pt" height="65.000000pt" viewBox="0 0 226.000000 65.000000"
 preserveAspectRatio="xMidYMid meet">

<g transform="translate(0.000000,65.000000) scale(0.100000,-0.100000)"
fill="#000000" stroke="none">
<path d="M2 381 c3 -254 4 -271 24 -297 41 -56 69 -69 160 -73 l84 -3 0 36 0
36 -45 0 c-25 0 -61 6 -80 14 -55 23 -65 56 -65 211 l0 135 91 0 90 0 -3 38
-3 37 -87 3 -88 3 0 64 0 65 -41 0 -40 0 3 -269z"/>
<path d="M405 496 c-209 -97 -206 -375 5 -469 101 -45 250 -20 328 55 38 37
39 44 11 74 l-21 23 -34 -34 c-60 -61 -181 -82 -260 -46 -63 29 -97 81 -102
155 -3 53 0 66 24 103 86 131 295 116 342 -24 l11 -33 -155 0 -155 0 3 -32 3
-33 191 -3 c148 -2 193 0 197 10 7 21 -11 136 -28 168 -51 98 -239 143 -360
86z"/>
<path d="M975 496 c-95 -45 -146 -126 -146 -230 0 -155 107 -260 266 -261 86
0 144 28 189 92 l30 43 -24 25 -24 25 -30 -36 c-102 -125 -291 -83 -327 73
-17 79 32 171 110 206 41 18 52 19 100 9 29 -6 68 -23 87 -37 39 -30 42 -30
74 -5 l25 20 -42 38 c-73 67 -194 83 -288 38z"/>
<path d="M1465 496 c-95 -45 -145 -126 -145 -236 0 -139 94 -240 240 -257 76
-9 136 12 192 69 27 26 48 53 48 61 0 7 -10 23 -23 35 l-23 21 -28 -36 c-62
-77 -178 -95 -251 -38 -61 46 -77 80 -73 156 4 82 36 130 107 161 40 18 53 19
100 9 29 -6 68 -22 87 -36 39 -30 42 -30 74 -5 l25 19 -29 30 c-70 73 -202 94
-301 47z"/>
<path d="M1998 509 c-116 -27 -194 -131 -192 -254 2 -134 115 -245 249 -245
94 0 105 6 105 51 0 43 0 43 -52 29 -47 -13 -109 2 -157 37 -95 73 -77 239 32
292 33 16 63 21 125 21 l82 0 0 -215 0 -215 35 0 35 0 0 255 0 255 -112 -1
c-62 -1 -130 -5 -150 -10z"/>
</g>
</svg>
