<?xml version="1.0" standalone="no"?>
<!DOCTYPE svg PUBLIC "-//W3C//DTD SVG 20010904//EN"
 "http://www.w3.org/TR/2001/REC-SVG-20010904/DTD/svg10.dtd">
<svg version="1.0" xmlns="http://www.w3.org/2000/svg"
 width="512.000000pt" height="512.000000pt" viewBox="0 0 512.000000 512.000000"
 preserveAspectRatio="xMidYMid meet">

<g transform="translate(0.000000,512.000000) scale(0.100000,-0.100000)"
fill="#000000" stroke="none">
<path d="M2395 4553 c-373 -59 -698 -317 -841 -667 -100 -244 -104 -529 -13
-780 90 -249 246 -427 516 -592 16 -10 12 -13 -27 -23 -385 -99 -773 -342
-1026 -644 -270 -321 -427 -713 -441 -1102 l-5 -140 27 -25 27 -25 1948 0
1948 0 27 25 27 25 -5 140 c-18 480 -258 971 -640 1306 -228 200 -541 366
-827 440 -40 10 -43 13 -26 23 87 51 183 122 243 180 525 498 423 1359 -205
1725 -168 98 -295 132 -512 136 -91 2 -178 1 -195 -2z m389 -187 c507 -129
805 -660 650 -1158 -96 -307 -346 -542 -661 -620 -123 -30 -303 -30 -426 0
-379 94 -654 408 -698 798 -26 240 56 502 218 692 112 130 294 243 467 287
132 35 316 35 450 1z m-43 -1986 c641 -65 1189 -431 1468 -980 97 -189 162
-408 177 -597 l7 -83 -1833 0 -1833 0 7 80 c22 261 123 544 281 780 368 552
1050 868 1726 800z"/>
</g>
</svg>
